<svg xmlns="http://www.w3.org/2000/svg" width="600" height="400">
  <defs>
    <marker id="seq_arrow" markerWidth="10" markerHeight="7" refX="10" refY="3.5" orient="auto" markerUnits="strokeWidth">
      <polygon points="0 0, 10 3.5, 0 7" fill="#475569"/>
    </marker>
  </defs>
  <rect x="5.0" y="30" width="90" height="30" rx="4" fill="#2563eb"/>
  <text x="50.0" y="50.0" text-anchor="middle" font-family="sans-serif" font-size="11" fill="#fff">Operator</text>
  <line x1="50.0" y1="60" x2="50.0" y2="380" stroke="#94a3b8" stroke-width="1" stroke-dasharray="6,3"/>
  <rect x="105.0" y="30" width="90" height="30" rx="4" fill="#3b82f6"/>
  <text x="150.0" y="50.0" text-anchor="middle" font-family="sans-serif" font-size="11" fill="#fff">Ground Station</text>
  <line x1="150.0" y1="60" x2="150.0" y2="380" stroke="#94a3b8" stroke-width="1" stroke-dasharray="6,3"/>
  <rect x="205.0" y="30" width="90" height="30" rx="4" fill="#60a5fa"/>
  <text x="250.0" y="50.0" text-anchor="middle" font-family="sans-serif" font-size="11" fill="#fff">Validator</text>
  <line x1="250.0" y1="60" x2="250.0" y2="380" stroke="#94a3b8" stroke-width="1" stroke-dasharray="6,3"/>
  <rect x="305.0" y="30" width="90" height="30" rx="4" fill="#93c5fd"/>
  <text x="350.0" y="50.0" text-anchor="middle" font-family="sans-serif" font-size="11" fill="#fff">Mission Planner</text>
  <line x1="350.0" y1="60" x2="350.0" y2="380" stroke="#94a3b8" stroke-width="1" stroke-dasharray="6,3"/>
  <rect x="405.0" y="30" width="90" height="30" rx="4" fill="#bfdbfe"/>
  <text x="450.0" y="50.0" text-anchor="middle" font-family="sans-serif" font-size="11" fill="#fff">Radio Link</text>
  <line x1="450.0" y1="60" x2="450.0" y2="380" stroke="#94a3b8" stroke-width="1" stroke-dasharray="6,3"/>
  <rect x="505.0" y="30" width="90" height="30" rx="4" fill="#2563eb"/>
  <text x="550.0" y="50.0" text-anchor="middle" font-family="sans-serif" font-size="11" fill="#fff">Drone</text>
  <line x1="550.0" y1="60" x2="550.0" y2="380" stroke="#94a3b8" stroke-width="1" stroke-dasharray="6,3"/>
  <line x1="50.0" y1="95.0" x2="150.0" y2="95.0" stroke="#475569" stroke-width="1.5" marker-end="url(#seq_arrow)"/>
  <text x="100.0" y="89.0" text-anchor="middle" font-family="sans-serif" font-size="10" fill="#64748b">msg 1</text>
  <line x1="250.0" y1="148.0" x2="150.0" y2="148.0" stroke="#475569" stroke-width="1.5" marker-end="url(#seq_arrow)"/>
  <text x="200.0" y="142.0" text-anchor="middle" font-family="sans-serif" font-size="10" fill="#64748b">msg 2</text>
  <line x1="250.0" y1="201.0" x2="350.0" y2="201.0" stroke="#475569" stroke-width="1.5" marker-end="url(#seq_arrow)"/>
  <text x="300.0" y="195.0" text-anchor="middle" font-family="sans-serif" font-size="10" fill="#64748b">msg 3</text>
  <line x1="450.0" y1="254.0" x2="350.0" y2="254.0" stroke="#475569" stroke-width="1.5" marker-end="url(#seq_arrow)"/>
  <text x="400.0" y="248.0" text-anchor="middle" font-family="sans-serif" font-size="10" fill="#64748b">msg 4</text>
  <line x1="450.0" y1="307.0" x2="550.0" y2="307.0" stroke="#475569" stroke-width="1.5" marker-end="url(#seq_arrow)"/>
  <text x="500.0" y="301.0" text-anchor="middle" font-family="sans-serif" font-size="10" fill="#64748b">msg 5</text>
</svg>