<svg xmlns="http://www.w3.org/2000/svg" width="700" height="400">
  <g>
    <rect x="285.0" y="40" width="130" height="36" rx="6" fill="#2563eb" stroke="#2563eb" stroke-width="2"/>
    <text x="350.0" y="63.0" text-anchor="middle" font-family="sans-serif" font-size="13" fill="#fff" font-weight="bold">Firmware Architecture</text>
  </g>
  <line x1="350.0" y1="76" x2="270.0" y2="140" stroke="#94a3b8" stroke-width="1.5"/>
  <rect x="205.0" y="140" width="130" height="36" rx="6" fill="#3b82f6"/>
  <text x="270.0" y="163.0" text-anchor="middle" font-family="sans-serif" font-size="12" fill="#fff">Flight Controller</text>
  <line x1="350.0" y1="76" x2="430.0" y2="140" stroke="#94a3b8" stroke-width="1.5"/>
  <rect x="365.0" y="140" width="130" height="36" rx="6" fill="#60a5fa"/>
  <text x="430.0" y="163.0" text-anchor="middle" font-family="sans-serif" font-size="12" fill="#fff">Ground Station</text>
  <line x1="270.0" y1="176" x2="195.0" y2="240" stroke="#cbd5e1" stroke-width="1"/>
  <rect x="130.0" y="240" width="130" height="36" rx="6" fill="#93c5fd" opacity="0.85"/>
  <text x="195.0" y="263.0" text-anchor="middle" font-family="sans-serif" font-size="11" fill="#fff">Fleet Dashboard</text>
  <line x1="270.0" y1="176" x2="335.0" y2="240" stroke="#cbd5e1" stroke-width="1"/>
  <rect x="270.0" y="240" width="130" height="36" rx="6" fill="#bfdbfe" opacity="0.85"/>
  <text x="335.0" y="263.0" text-anchor="middle" font-family="sans-serif" font-size="11" fill="#fff">Telemetry Pipeline</text>
  <line x1="430.0" y1="176" x2="425.0" y2="240" stroke="#cbd5e1" stroke-width="1"/>
  <rect x="360.0" y="240" width="130" height="36" rx="6" fill="#2563eb" opacity="0.85"/>
  <text x="425.0" y="263.0" text-anchor="middle" font-family="sans-serif" font-size="11" fill="#fff">Mission Scripting</text>
</svg>