<svg xmlns="http://www.w3.org/2000/svg" width="700" height="150">
  <defs>
    <marker id="pipe_arrow" markerWidth="10" markerHeight="7" refX="10" refY="3.5" orient="auto" markerUnits="strokeWidth">
      <polygon points="0 0, 10 3.5, 0 7" fill="#64748b"/>
    </marker>
  </defs>
  <rect x="5.0" y="55.0" width="90.0" height="40" rx="10" fill="#2563eb"/>
  <text x="50.0" y="80.0" text-anchor="middle" font-family="sans-serif" font-size="11" fill="#fff" font-weight="600">Install Tools</text>
  <line x1="98.0" y1="75.0" x2="122.0" y2="75.0" stroke="#64748b" stroke-width="2" marker-end="url(#pipe_arrow)"/>
  <rect x="125.0" y="55.0" width="90.0" height="40" rx="10" fill="#059669"/>
  <text x="170.0" y="80.0" text-anchor="middle" font-family="sans-serif" font-size="11" fill="#fff" font-weight="600">Clone Repos</text>
  <line x1="218.0" y1="75.0" x2="242.0" y2="75.0" stroke="#64748b" stroke-width="2" marker-end="url(#pipe_arrow)"/>
  <rect x="245.0" y="55.0" width="90.0" height="40" rx="10" fill="#d97706"/>
  <text x="290.0" y="80.0" text-anchor="middle" font-family="sans-serif" font-size="11" fill="#fff" font-weight="600">Configure Environment</text>
  <line x1="338.0" y1="75.0" x2="362.0" y2="75.0" stroke="#64748b" stroke-width="2" marker-end="url(#pipe_arrow)"/>
  <rect x="365.0" y="55.0" width="90.0" height="40" rx="10" fill="#dc2626"/>
  <text x="410.0" y="80.0" text-anchor="middle" font-family="sans-serif" font-size="11" fill="#fff" font-weight="600">Run Tests</text>
  <line x1="458.0" y1="75.0" x2="482.0" y2="75.0" stroke="#64748b" stroke-width="2" marker-end="url(#pipe_arrow)"/>
  <rect x="485.0" y="55.0" width="90.0" height="40" rx="10" fill="#7c3aed"/>
  <text x="530.0" y="80.0" text-anchor="middle" font-family="sans-serif" font-size="11" fill="#fff" font-weight="600">First Build</text>
  <line x1="578.0" y1="75.0" x2="602.0" y2="75.0" stroke="#64748b" stroke-width="2" marker-end="url(#pipe_arrow)"/>
  <rect x="605.0" y="55.0" width="90.0" height="40" rx="10" fill="#0891b2"/>
  <text x="650.0" y="80.0" text-anchor="middle" font-family="sans-serif" font-size="11" fill="#fff" font-weight="600">Deploy to Dev</text>
</svg>