<svg xmlns="http://www.w3.org/2000/svg" width="600" height="400">
  <line x1="300.0" y1="50.0" x2="429.9038105676658" y2="125.0" stroke="#cbd5e1" stroke-width="1" opacity="0.6"/>
  <line x1="300.0" y1="50.0" x2="429.9038105676658" y2="275.0" stroke="#cbd5e1" stroke-width="1" opacity="0.6"/>
  <line x1="429.9038105676658" y1="125.0" x2="429.9038105676658" y2="275.0" stroke="#cbd5e1" stroke-width="1" opacity="0.6"/>
  <line x1="429.9038105676658" y1="125.0" x2="300.0" y2="350.0" stroke="#cbd5e1" stroke-width="1" opacity="0.6"/>
  <line x1="429.9038105676658" y1="275.0" x2="300.0" y2="350.0" stroke="#cbd5e1" stroke-width="1" opacity="0.6"/>
  <line x1="429.9038105676658" y1="275.0" x2="170.09618943233423" y2="275.00000000000006" stroke="#cbd5e1" stroke-width="1" opacity="0.6"/>
  <line x1="300.0" y1="350.0" x2="170.09618943233423" y2="275.00000000000006" stroke="#cbd5e1" stroke-width="1" opacity="0.6"/>
  <line x1="300.0" y1="350.0" x2="170.0961894323342" y2="124.99999999999999" stroke="#cbd5e1" stroke-width="1" opacity="0.6"/>
  <line x1="170.09618943233423" y1="275.00000000000006" x2="170.0961894323342" y2="124.99999999999999" stroke="#cbd5e1" stroke-width="1" opacity="0.6"/>
  <line x1="170.09618943233423" y1="275.00000000000006" x2="300.0" y2="50.0" stroke="#cbd5e1" stroke-width="1" opacity="0.6"/>
  <line x1="170.0961894323342" y1="124.99999999999999" x2="429.9038105676658" y2="125.0" stroke="#cbd5e1" stroke-width="1" opacity="0.6"/>
  <circle cx="300.0" cy="50.0" r="28" fill="#2563eb" stroke="#fff" stroke-width="2"/>
  <text x="300.0" y="54.0" text-anchor="middle" font-family="sans-serif" font-size="10" fill="#fff" font-weight="600">Radio Jamming</text>
  <circle cx="429.9038105676658" cy="125.0" r="28" fill="#059669" stroke="#fff" stroke-width="2"/>
  <text x="429.9038105676658" y="129.0" text-anchor="middle" font-family="sans-serif" font-size="10" fill="#fff" font-weight="600">GPS Spoofing</text>
  <circle cx="429.9038105676658" cy="275.0" r="28" fill="#d97706" stroke="#fff" stroke-width="2"/>
  <text x="429.9038105676658" y="279.0" text-anchor="middle" font-family="sans-serif" font-size="10" fill="#fff" font-weight="600">Firmware Tampering</text>
  <circle cx="300.0" cy="350.0" r="28" fill="#dc2626" stroke="#fff" stroke-width="2"/>
  <text x="300.0" y="354.0" text-anchor="middle" font-family="sans-serif" font-size="10" fill="#fff" font-weight="600">API Injection</text>
  <circle cx="170.09618943233423" cy="275.00000000000006" r="28" fill="#7c3aed" stroke="#fff" stroke-width="2"/>
  <text x="170.09618943233423" y="279.00000000000006" text-anchor="middle" font-family="sans-serif" font-size="10" fill="#fff" font-weight="600">Supply Chain</text>
  <circle cx="170.0961894323342" cy="124.99999999999999" r="28" fill="#0891b2" stroke="#fff" stroke-width="2"/>
  <text x="170.0961894323342" y="129.0" text-anchor="middle" font-family="sans-serif" font-size="10" fill="#fff" font-weight="600">Insider Threat</text>
</svg>