<svg xmlns="http://www.w3.org/2000/svg" width="600" height="400">
  <defs>
    <marker id="seq_arrow" markerWidth="10" markerHeight="7" refX="10" refY="3.5" orient="auto" markerUnits="strokeWidth">
      <polygon points="0 0, 10 3.5, 0 7" fill="#475569"/>
    </marker>
  </defs>
  <rect x="5.0" y="30" width="90" height="30" rx="4" fill="#2563eb"/>
  <text x="50.0" y="50.0" text-anchor="middle" font-family="sans-serif" font-size="11" fill="#fff">Client</text>
  <line x1="50.0" y1="60" x2="50.0" y2="380" stroke="#94a3b8" stroke-width="1" stroke-dasharray="6,3"/>
  <rect x="171.66666666666666" y="30" width="90" height="30" rx="4" fill="#3b82f6"/>
  <text x="216.66666666666666" y="50.0" text-anchor="middle" font-family="sans-serif" font-size="11" fill="#fff">WS Server</text>
  <line x1="216.66666666666666" y1="60" x2="216.66666666666666" y2="380" stroke="#94a3b8" stroke-width="1" stroke-dasharray="6,3"/>
  <rect x="338.3333333333333" y="30" width="90" height="30" rx="4" fill="#60a5fa"/>
  <text x="383.3333333333333" y="50.0" text-anchor="middle" font-family="sans-serif" font-size="11" fill="#fff">Reconnect</text>
  <line x1="383.3333333333333" y1="60" x2="383.3333333333333" y2="380" stroke="#94a3b8" stroke-width="1" stroke-dasharray="6,3"/>
  <rect x="505.0" y="30" width="90" height="30" rx="4" fill="#93c5fd"/>
  <text x="550.0" y="50.0" text-anchor="middle" font-family="sans-serif" font-size="11" fill="#fff">Replay</text>
  <line x1="550.0" y1="60" x2="550.0" y2="380" stroke="#94a3b8" stroke-width="1" stroke-dasharray="6,3"/>
  <line x1="50.0" y1="95.0" x2="216.66666666666666" y2="95.0" stroke="#475569" stroke-width="1.5" marker-end="url(#seq_arrow)"/>
  <text x="133.33333333333331" y="89.0" text-anchor="middle" font-family="sans-serif" font-size="10" fill="#64748b">msg 1</text>
  <line x1="383.3333333333333" y1="183.33333333333331" x2="216.66666666666666" y2="183.33333333333331" stroke="#475569" stroke-width="1.5" marker-end="url(#seq_arrow)"/>
  <text x="300.0" y="177.33333333333331" text-anchor="middle" font-family="sans-serif" font-size="10" fill="#64748b">msg 2</text>
  <line x1="383.3333333333333" y1="271.66666666666663" x2="550.0" y2="271.66666666666663" stroke="#475569" stroke-width="1.5" marker-end="url(#seq_arrow)"/>
  <text x="466.66666666666663" y="265.66666666666663" text-anchor="middle" font-family="sans-serif" font-size="10" fill="#64748b">msg 3</text>
</svg>