<svg xmlns="http://www.w3.org/2000/svg" width="600" height="400">
  <defs>
    <marker id="sa" markerWidth="10" markerHeight="7" refX="10" refY="3.5" orient="auto" markerUnits="strokeWidth">
      <polygon points="0 0, 10 3.5, 0 7" fill="#64748b"/>
    </marker>
  </defs>
  <rect x="245.0" y="62.0" width="110" height="36" rx="15" fill="#2563eb"/>
  <text x="300.0" y="85.0" text-anchor="middle" font-family="sans-serif" font-size="12" fill="#fff">Normal</text>
  <rect x="378.1479122813215" y="144.91796067500633" width="110" height="36" rx="15" fill="#059669"/>
  <text x="433.1479122813215" y="167.91796067500633" text-anchor="middle" font-family="sans-serif" font-size="12" fill="#fff">Interference</text>
  <rect x="327.28993532094626" y="279.08203932499373" width="110" height="36" rx="15" fill="#d97706"/>
  <text x="382.28993532094626" y="302.08203932499373" text-anchor="middle" font-family="sans-serif" font-size="12" fill="#fff">Scan</text>
  <rect x="162.71006467905377" y="279.08203932499373" width="110" height="36" rx="15" fill="#dc2626"/>
  <text x="217.71006467905377" y="302.08203932499373" text-anchor="middle" font-family="sans-serif" font-size="12" fill="#fff">Hop</text>
  <rect x="111.85208771867849" y="144.91796067500633" width="110" height="36" rx="15" fill="#7c3aed"/>
  <text x="166.8520877186785" y="167.91796067500633" text-anchor="middle" font-family="sans-serif" font-size="12" fill="#fff">Confirm</text>
  <path d="M 337.3496333699732 91.41830577113866 Q 354.1362620394098 141.4311671797014 395.7982789113483 151.49965490386765" fill="none" stroke="#64748b" stroke-width="1.5" marker-end="url(#sa)"/>
  <path d="M 417.55166393064655 183.1154965712977 Q 387.59431200363576 222.37130345594375 397.8861836716212 276.8845034287024" fill="none" stroke="#64748b" stroke-width="1.5" marker-end="url(#sa)"/>
  <path d="M 338.28993532094626 297.08203932499373 Q 300.0 272.39505872870984 261.71006467905374 297.08203932499373" fill="none" stroke="#64748b" stroke-width="1.5" marker-end="url(#sa)"/>
  <path d="M 202.11381632837882 276.8845034287024 Q 212.40568799636424 222.37130345594375 182.44833606935345 183.1154965712977" fill="none" stroke="#64748b" stroke-width="1.5" marker-end="url(#sa)"/>
</svg>