<svg xmlns="http://www.w3.org/2000/svg" width="300" height="300">
  <path d="M 114.0 150.0 L 114.00 56.00 A 94.0 94.0 0 0 1 187.49 91.39 Z" fill="#2563eb" stroke="#fff" stroke-width="1.5"/>
  <path d="M 114.0 150.0 L 187.49 91.39 A 94.0 94.0 0 0 1 93.08 241.64 Z" fill="#059669" stroke="#fff" stroke-width="1.5"/>
  <path d="M 114.0 150.0 L 93.08 241.64 A 94.0 94.0 0 0 1 29.31 109.21 Z" fill="#d97706" stroke="#fff" stroke-width="1.5"/>
  <path d="M 114.0 150.0 L 29.31 109.21 A 94.0 94.0 0 0 1 114.00 56.00 Z" fill="#dc2626" stroke="#fff" stroke-width="1.5"/>
  <rect x="238.0" y="20" width="12" height="12" rx="2" fill="#2563eb"/>
  <text x="256.0" y="31" font-family="sans-serif" font-size="11" fill="#475569">Headwind</text>
  <rect x="238.0" y="42" width="12" height="12" rx="2" fill="#059669"/>
  <text x="256.0" y="53" font-family="sans-serif" font-size="11" fill="#475569">Crosswind</text>
  <rect x="238.0" y="64" width="12" height="12" rx="2" fill="#d97706"/>
  <text x="256.0" y="75" font-family="sans-serif" font-size="11" fill="#475569">Tailwind</text>
  <rect x="238.0" y="86" width="12" height="12" rx="2" fill="#dc2626"/>
  <text x="256.0" y="97" font-family="sans-serif" font-size="11" fill="#475569">Calm</text>
</svg>